<?xml version="1.0" standalone="no"?>
<!DOCTYPE svg PUBLIC "-//W3C//DTD SVG 20010904//EN"
 "http://www.w3.org/TR/2001/REC-SVG-20010904/DTD/svg10.dtd">
<svg version="1.0" xmlns="http://www.w3.org/2000/svg"
 width="170.000000pt" height="170.000000pt" viewBox="0 0 170.000000 170.000000"
 preserveAspectRatio="xMidYMid meet">
<metadata>
Created by potrace 1.14, written by Peter Selinger 2001-2017
</metadata>
<g transform="translate(0.000000,170.000000) scale(0.100000,-0.100000)"
fill="#000000" stroke="none">
<path d="M758 1594 c-2 -1 -22 -5 -45 -9 -61 -9 -141 -38 -225 -82 -84 -44
-240 -191 -273 -258 -11 -22 -22 -42 -25 -45 -11 -10 -38 -76 -59 -143 -35
-114 -35 -273 -2 -405 13 -48 59 -164 70 -172 3 -3 12 -17 19 -31 7 -14 38
-53 69 -87 175 -197 400 -279 677 -248 33 4 64 10 68 12 5 3 21 7 36 10 68 12
272 129 272 157 0 6 3 8 6 4 6 -5 19 8 85 83 25 29 91 133 95 150 0 3 8 21 16
40 45 100 67 288 46 400 -27 148 -93 280 -196 390 -40 44 -80 80 -87 80 -7 0
-15 7 -19 15 -3 8 -12 15 -21 15 -8 0 -15 4 -15 9 0 14 -126 70 -209 93 -50
14 -110 22 -178 23 -57 1 -104 1 -105 -1z m169 -404 c63 -38 68 -55 68 -245 0
-193 -5 -209 -78 -247 -75 -38 -166 -8 -201 66 -12 27 -16 66 -16 180 0 165 8
197 61 239 43 34 117 37 166 7z m-290 -282 c4 -7 8 -31 9 -53 1 -71 14 -115
46 -151 82 -93 218 -101 302 -17 43 43 58 80 60 151 2 48 7 69 18 76 31 19 46
-8 43 -82 -4 -109 -62 -203 -150 -243 -22 -10 -50 -19 -62 -19 -17 0 -22 -6
-21 -30 1 -29 2 -29 66 -32 48 -2 68 -7 76 -20 21 -35 -5 -41 -175 -41 -139
-1 -164 2 -173 15 -19 31 10 48 81 48 64 0 64 0 61 27 -2 21 -10 29 -33 33
-113 24 -196 131 -201 259 -3 64 6 91 32 91 7 0 16 -6 21 -12z"/>
</g>
</svg>
